<svg width="180" height="36" viewBox="0 0 180 36" fill="none" xmlns="http://www.w3.org/2000/svg"><g clip-path="url(#prefix__clip0)"><path d="M56.93 18.078c0 4.375-3.18 7.754-7.04 7.754-1.974 0-3.417-.676-4.388-1.79V30.3h-4.418V10.737h4.418v1.38c.973-1.116 2.416-1.79 4.388-1.79 3.86-.002 7.04 3.377 7.04 7.751zm-4.418 0c0-2.201-1.473-3.582-3.506-3.582-2.032 0-3.506 1.38-3.506 3.582 0 2.204 1.474 3.583 3.506 3.583 2.033 0 3.506-1.379 3.506-3.583zM67.266 10.443v4.786c-2.095-.18-4.418.75-4.418 3.554v6.637H58.43V10.737h4.418v2.614c.59-1.968 2.563-2.908 4.418-2.908zM67.77 18.079c0-4.375 3.475-7.754 7.805-7.754s7.805 3.377 7.805 7.754-3.476 7.753-7.805 7.753c-4.33 0-7.806-3.378-7.806-7.753zm11.192 0c0-2.085-1.474-3.466-3.387-3.466-1.916 0-3.387 1.38-3.387 3.466 0 2.084 1.473 3.465 3.387 3.465 1.913 0 3.387-1.38 3.387-3.465zM100.405 6v19.42h-4.418v-1.38c-.973 1.114-2.416 1.79-4.388 1.79-3.86 0-7.04-3.376-7.04-7.753 0-4.378 3.18-7.754 7.04-7.754 1.974 0 3.417.676 4.388 1.79V6h4.418zm-4.418 12.079c0-2.202-1.474-3.583-3.506-3.583-2.033 0-3.506 1.381-3.506 3.583 0 2.203 1.473 3.582 3.506 3.582 2.032 0 3.506-1.379 3.506-3.582zM116.647 10.737V25.42h-4.418v-1.38c-.796 1.086-2.269 1.79-4.213 1.79-2.975 0-5.508-2.114-5.508-6.079v-9.016h4.418v8.37c0 1.821 1.149 2.672 2.564 2.672 1.62 0 2.739-.94 2.739-3.024v-8.016h4.418zM118.355 18.079c0-4.375 3.329-7.754 7.806-7.754 2.858 0 5.391 1.497 6.657 3.759l-3.86 2.232c-.5-1.029-1.56-1.644-2.858-1.644-1.915 0-3.328 1.38-3.328 3.407 0 2.026 1.413 3.407 3.328 3.407 1.296 0 2.386-.616 2.858-1.645l3.86 2.202c-1.268 2.29-3.771 3.79-6.657 3.79-4.477 0-7.806-3.38-7.806-7.754zM138.766 14.965v5.198c0 1.264 1.09 1.38 3.034 1.264v3.993c-5.773.587-7.452-1.145-7.452-5.257V9.1l4.418-1.65v3.286h3.034v4.228h-3.034v.002zM143.83 10.737h4.418V25.42h-4.418V10.737zM165.185 10.737l-5.45 14.685h-5.008l-5.45-14.685h4.891l3.064 9.31 3.064-9.31h4.889zM172.901 21.999c1.207 0 2.115-.354 3.041-1.095l3.321 1.904c-1.443 1.996-3.623 3.024-6.421 3.024-5.038 0-8.158-3.376-8.158-7.753 0-4.377 3.181-7.754 7.835-7.754 4.301 0 7.482 3.318 7.482 7.754 0 .615-.058 1.096-.177 1.654H169.28c.559 1.527 2 2.266 3.621 2.266zm2.88-5.386c-.394-1.656-1.689-2.533-3.213-2.533-1.771 0-3.024.956-3.46 2.533h6.673z" fill="#111"/><path d="M6.036 28.89L.17 18.977a1.217 1.217 0 01.426-1.667l4.633-2.74a1.217 1.217 0 011.666.426l3.3 5.579 3.424-5.89c4.28-7.018 8.712.738 6.693 4.034l-5.89 10.139a2.836 2.836 0 01-2.443 1.412l-3.492.015a2.838 2.838 0 01-2.451-1.393z" fill="url(#prefix__paint0_linear)"/><path d="M30.847 21.445a4.4 4.4 0 11-8.802.001 4.4 4.4 0 018.802 0zm-18.259 3.176c.966 1.64 3.34 1.632 4.297-.014l3.429-5.9c1.787-2.917 3.807-4.476 6.333-4.82.612-.083 1.211-.224 1.374-1.145l.938-5.259a1.234 1.234 0 00-1.207-1.485c-4.603 0-9.956 1.825-14.131 8.672l-3.426 5.892 2.393 4.059z" fill="url(#prefix__paint1_linear)"/></g><defs><linearGradient id="prefix__paint0_linear" x1="-1.5" y1="9" x2="13" y2="30" gradientUnits="userSpaceOnUse"><stop stop-color="#AB40FF"/><stop offset="1" stop-color="#5D2BFF"/></linearGradient><linearGradient id="prefix__paint1_linear" x1="24.5" y1="8" x2="13.886" y2="23.709" gradientUnits="userSpaceOnUse"><stop stop-color="#AB40FF"/><stop offset="1" stop-color="#2D00AD"/></linearGradient><clipPath id="prefix__clip0"><path fill="#fff" transform="translate(0 6)" d="M0 0h180v24.3H0z"/></clipPath></defs></svg>